<svg width="23" height="23" viewBox="0 0 87 87" fill="none" xmlns="http://www.w3.org/2000/svg"><path d="M0 0.5H86.28V86.78H0V0.5Z" fill="white" fill-opacity="0.01"></path><path d="M39.545 14.88V36.45C39.545 40.4209 32.3021 43.64 23.3675 43.64C14.4329 43.64 7.18999 40.4209 7.18999 36.45V14.88" stroke="currentColor" stroke-width="4.19" stroke-linecap="round" stroke-linejoin="round"></path><path d="M39.545 25.665C39.545 29.6359 32.3021 32.855 23.3675 32.855C14.4329 32.855 7.18999 29.6359 7.18999 25.665" stroke="currentColor" stroke-width="4.19" stroke-linecap="round" stroke-linejoin="round"></path><path d="M39.545 15.88C39.545 19.8509 32.3021 23.07 23.3675 23.07C14.4329 23.07 7.18999 19.8509 7.18999 15.88C7.18999 11.9091 14.4329 8.69 23.3675 8.69C32.3021 8.69 39.545 11.9091 39.545 15.88Z" fill="currentColor" stroke="currentColor" stroke-width="4.19" stroke-linecap="round" stroke-linejoin="round"></path><path d="M57.52 11.285H68.305C72.2758 11.285 75.495 14.5041 75.495 18.475V29.26" stroke="currentColor" stroke-width="4.19" stroke-linecap="round" stroke-linejoin="round"></path><path d="M28.76 76.995H17.975C14.0041 76.995 10.785 73.7759 10.785 69.805V59.02" stroke="currentColor" stroke-width="4.19" stroke-linecap="round" stroke-linejoin="round"></path><path d="M62.9125 61.615C67.8762 61.615 71.9 57.5912 71.9 52.6275C71.9 47.6638 67.8762 43.64 62.9125 43.64C57.9488 43.64 53.925 47.6638 53.925 52.6275C53.925 57.5912 57.9488 61.615 62.9125 61.615Z" fill="currentColor"></path><path d="M79.09 79.59H46.735C46.735 70.6554 53.9778 63.4125 62.9125 63.4125C71.8472 63.4125 79.09 70.6554 79.09 79.59Z" fill="currentColor"></path></svg>